<svg id="Layer_1" data-name="Layer 1" xmlns="http://www.w3.org/2000/svg" viewBox="0 0 766.74 363.29"><defs><style>.cls-1,.cls-2{fill:#fff;}.cls-1{stroke:#fff;}.cls-1,.cls-3{stroke-miterlimit:10;}.cls-3{fill:none;stroke:#000;stroke-width:16px;}</style></defs><title>logo</title><path class="cls-1" d="M213.53,242.67S39.49,279,.92,347.49c0,0,32.57-210.07,223.73-251.84S213.53,242.67,213.53,242.67Z"/><path class="cls-1" d="M555,245.45s173.42,39.19,210.88,108.27c0,0-29.14-210.57-219.6-255.45S555,245.45,555,245.45Z"/><path class="cls-2" d="M384.19,362.79c-99.88-.81-180.48-82.73-179.67-182.61A181.15,181.15,0,0,1,385.64.5h1.51C487,1.32,567.62,83.24,566.81,183.12A181.15,181.15,0,0,1,385.7,362.79Z"/><path class="cls-2" d="M385.66,0V1h1.48A180.64,180.64,0,0,1,512.85,309.93,179.51,179.51,0,0,1,385.7,362.29h-1.5A180.64,180.64,0,0,1,258.48,53.37,179.53,179.53,0,0,1,385.64,1l0-1m0,0C286,0,204.84,80.36,204,180.17A181.65,181.65,0,0,0,384.19,363.29h1.51A181.65,181.65,0,0,0,387.15,0Z"/><path class="cls-3" d="M319.09,62.88a136.29,136.29,0,0,0-68,139.12"/><path class="cls-3" d="M415.27,314.55A136,136,0,0,0,521.63,174.94"/></svg>