<svg id="Layer_1" data-name="Layer 1" xmlns="http://www.w3.org/2000/svg" viewBox="0 0 569.46 853.95"><defs><style>.cls-1{fill:#e5d8c7;}.cls-2{fill:#e6e6e6;}.cls-3{fill:#999;}.cls-4{fill:#b3b3b3;}.cls-5{fill:#29abe2;}.cls-6{fill:#ccc;}.cls-7{fill:#c67147;}.cls-8{fill:#fff;}</style></defs><title>selfchecker</title><path class="cls-1" d="M158.23,139.8c-10.32,25.94-3.28,55.95-11.69,82.57-2.19,6.95-5.41,13.53-7.86,20.39-8.41,23.49-7.64,49.24-4.84,74,1.45,12.85,3.53,26,9.94,37.21,8.38,14.69,23.46,24.63,39.44,30.15s33,7.1,49.87,8.56c15.66,1.36,32.24,2.48,46.31-4.53,6.52-3.25,12.09-8.07,17.59-12.84,7.64-6.62,15.41-13.4,20.55-22.1,7.79-13.17,8.71-29.14,9.42-44.42l3.27-69.7a5.91,5.91,0,0,0-.74-3.94,6.37,6.37,0,0,0-2.76-1.7c-14.37-6-23.53-19.92-31.81-33.1L262.68,149c-3.91-6.22-8-12.92-7.81-20.26.09-4.39,1.5-9.42-1.41-12.71-2.55-2.89-7.27-2.67-10.69-.89s-6.07,4.73-9.19,7c-11.24,8.11-26.5,6.1-40.35,5.34s-30.3,1.6-36.73,13.89"/><path class="cls-2" d="M337,490.37l1.25-7.56c.2-1.22.49-2.58,1.51-3.27a4.48,4.48,0,0,1,2.17-.58,79.24,79.24,0,0,1,10.6-.19,2.88,2.88,0,0,1,3.47,3.16,102.85,102.85,0,0,1-.7,22.41,2.24,2.24,0,0,1-.61,1.49,2.36,2.36,0,0,1-1.57.33,27.69,27.69,0,0,0-8.27,1.12,4.25,4.25,0,0,0-2,1.06,4.63,4.63,0,0,0-.79,3.21q.22,39.18,1.1,78.36c.2,9.11-.1,19.51-7,25.47a4.57,4.57,0,0,1-3,1.37,3.63,3.63,0,0,1-3-2.75,10.83,10.83,0,0,1-.06-4.35c3.77-31.68,3.77-63.68,3.76-95.58a8.7,8.7,0,0,0-.92-4.78,27.67,27.67,0,0,1-1.86-2.42,6.59,6.59,0,0,1-.51-2.46l-.54-7.1c-.16-2.09,0-4.75,2-5.48,1.15-.43,2.43,0,3.65,0s2.6-1.31,1.93-2.34"/><path class="cls-2" d="M338.45,490.77c.4-2.42.48-5.23,1.25-7.56,1-3,2.71-2.84,5.76-3,1.69-.07,5.61-.77,7.07,0,3.14,1.72,2.31,8.11,2.27,11,0,3.25.6,12.12-2.52,13.38s-7.34-.23-10.21,2.37c-1.84,1.66-1.52,4.21-1.52,6.47,0,5.88.08,11.76.14,17.63q.15,15.67.41,31.34c.18,10.59.71,21.22.57,31.81a40.15,40.15,0,0,1-1.74,12.57,17.21,17.21,0,0,1-3.82,6.47c-1.77,1.81-3.41,3.33-4.76-2.23-.3-1.25.35-3.11.49-4.37,2.39-21.36,3.12-42.86,3.33-64.33q.09-9.28.09-18.57c0-4.3.91-9.67-.49-13.82-1-3-2.75-5-3-8.28s-1.23-6.69,2.56-8.5c1-.5,2.34.14,3.49-.78a2.9,2.9,0,0,0,1.18-3c-.12-1.92-3.12-1.93-3,0,.05.87-4.15.72-4.85,1.06a4.62,4.62,0,0,0-2.28,2.54c-.81,1.86-.44,4.07-.31,6,.17,2.54-.08,5.78,1,8.19,1.28,2.93,2.5,5.24,2.73,8.75.21,3.21,0,6.55,0,9.77,0,7.17,0,14.33-.14,21.5-.19,13.34-.6,26.69-1.53,40q-.68,9.74-1.75,19.44c-.37,3.33-1.51,8,1.6,10.43,6.41,5.09,12.13-7.81,13.16-12.24,2.56-11.06.85-23.38.64-34.61q-.36-19.59-.55-39.18,0-4.9-.09-9.8c0-2.87-.87-7-.07-9.8,1.91-6.53,9.23-1.25,12.44-5,1.25-1.45,1.1-4.27,1.27-6a103.73,103.73,0,0,0,.55-11.21c0-3.27,1-9.54-2.51-11.57-1.67-1-4.48-.66-6.3-.67-2.48,0-6.21-.39-8.6.49-4.66,1.73-4.17,8.2-4.84,12.3-.31,1.89,2.58,2.7,2.89.8Z"/><path class="cls-3" d="M84.68,818.44a19.32,19.32,0,0,0-6.85.28,4.8,4.8,0,0,0-2.27,1,4.53,4.53,0,0,0-1.12,2c-2.1,6.58,1.47,13.91,6.83,18.26s12.19,6.38,18.83,8.3l4.36,1.26c2.45.71,5.08,1.43,7.52.67,4.33-1.34,6.09-7,4.61-11.29s-5.23-7.36-9.05-9.81a67.49,67.49,0,0,0-31.85-10.44"/><path class="cls-3" d="M84.68,816.94c-5.33-.5-10.77-.17-12,5.81-1.12,5.25.95,10.74,4.19,14.82,3.52,4.44,8.53,7.2,13.74,9.22,5.6,2.17,13.11,5.34,19.18,5.23,4.59-.08,7.82-3.31,8.66-7.73.92-4.85-1.52-9.27-4.94-12.53-9.71-9.26-24.74-13.56-37.77-14.57-1.93-.15-1.92,2.85,0,3a67.3,67.3,0,0,1,26.71,7.67c4.23,2.27,9,5,11.6,9.16,2.84,4.55,1.84,12.32-5,12-3.79-.17-7.92-2-11.55-3.08-4.43-1.35-8.91-2.86-12.83-5.4A20.16,20.16,0,0,1,76,829.91c-.66-2.12-1.37-5.73-.12-7.78,1.85-3,5.84-2.46,8.79-2.18,1.92.18,1.91-2.82,0-3Z"/><path class="cls-4" d="M76.93,815a96.77,96.77,0,0,1,26,5.58c4.51,1.64,9.1,3.78,11.92,7.66,3.51,4.81,3.57,11.23,3.5,17.18,2.78-6.17,4.29-12.83,5.78-19.43,1.16-5.12,2.24-10.8-.39-15.35-3.05-5.28-9.93-6.9-16-6.91a51.5,51.5,0,0,0-27,7.71,20.58,20.58,0,0,0-4.76,3.81"/><path class="cls-4" d="M76.93,816.51a94.1,94.1,0,0,1,26.95,6c4.11,1.63,8.26,3.84,10.55,7.81,2.6,4.51,2.47,10,2.42,15.08,0,1.39,2.18,2.18,2.8.76a94.47,94.47,0,0,0,7-25.7c.81-6.9-1.45-13.13-8-16.14-13.08-6-34.09-.1-43.8,9.86-1.35,1.38.77,3.51,2.12,2.12,8.55-8.77,25.75-13.52,37.61-10.25,8.42,2.32,10.12,9.28,8.6,17.18a104,104,0,0,1-6.13,21.41l2.8.76c.08-9.9-1.41-18.83-10.84-23.85-9.65-5.13-21.3-7.18-32.08-8.07-1.92-.16-1.91,2.84,0,3Z"/><path class="cls-2" d="M104.23,799.79c2,2,5.48,0,6.63-2.58s1.17-5.56,2.72-7.87a10,10,0,0,1,4.27-3.32c8.89-4,19.39-.08,27.5,5.37s15.43,12.49,24.73,15.47c3.49,1.12,7.18,1.64,10.54,3.11,3,1.33,5.68,3.39,8.69,4.75,4.22,1.9,8.93,2.34,13.55,2.67q16.6,1.18,33.26,1c4.32-.05,8.77-.2,12.7-2,4.92-2.23,8.41-6.71,11.44-11.18,5.71-8.43,10.65-17.78,11.52-27.92a54.38,54.38,0,0,1,.81-8.09,49.13,49.13,0,0,1,2.68-7c5.2-12.7,4.2-27,3.12-40.65-.23-2.9-.51-6-2.21-8.31s-5.33-3.58-7.57-1.73a73.35,73.35,0,0,1,1,39.87c-2.21,8.58-6,16.67-9.68,24.71-3,6.56-6.25,13.35-11.82,18-2.64,2.19-5.72,3.81-8.27,6.11-2,1.8-3.66,4-5.92,5.48-3.44,2.25-7.77,2.49-11.88,2.67-11.36.49-23.35.83-33.35-4.57-4-2.14-7.42-5.1-10.9-8-14.23-11.67-30.09-22.28-48.15-25.81-5.48-1.07-11.57-1.37-16.26,1.67-5.11,3.3-7.25,9.65-8.39,15.63-.85,4.47-1.29,9.33.81,13.36"/><path class="cls-2" d="M103.48,801.08c2.25,1.47,4.6,1.09,6.68-.62,3-2.49,2.65-6.54,4.55-9.68,3.31-5.47,11.22-5.53,16.8-4.2,5.81,1.38,11,4.52,15.78,8,7.7,5.5,14.89,11.65,24.17,14.28a66.57,66.57,0,0,1,8.49,2.54c2.51,1.09,4.72,2.65,7.14,3.91a35,35,0,0,0,13.18,3.39,327,327,0,0,0,35.86,1.19c9.25-.16,16.36-2.23,22.32-9.64a72.75,72.75,0,0,0,13.18-24.28c1.33-4.52,1.47-8.91,2-13.54.59-5.52,3.66-10.37,5.07-15.7,3-11.41,2.24-23.52,1.22-35.15-.53-6-4.14-16-12-11.34a1.53,1.53,0,0,0-.69,1.69c6.3,21.13,1.94,40.67-7,60.21-3.92,8.55-7.63,17.07-15.52,22.7a75.55,75.55,0,0,0-8.69,7.15c-4.54,4.36-9.6,4.68-15.58,4.92-9.81.39-20.29.62-29.37-3.67-8-3.8-14.55-10.72-21.7-16-12.93-9.47-29.23-19.11-45.75-19.53-7.52-.19-13.78,3.12-17.11,10-3.42,7-5.09,16.35-1.91,23.69.77,1.77,3.35.24,2.59-1.51-3.53-8.12,0-23.45,8.36-27.69,8.2-4.14,20.05.31,27.9,3.52a115.12,115.12,0,0,1,23.72,13.65c7,5,13.26,11.59,20.86,15.68,7.29,3.91,15.62,4.94,23.79,5,6.9.08,16.07.83,22.3-2.74,3.56-2,6-5.55,9.27-8,3.47-2.55,6.87-4.69,9.64-8.07,5-6.1,8.06-13.74,11.25-20.89,8.56-19.19,12-38.8,5.86-59.29l-.69,1.69c7.25-4.25,7.61,9.68,7.87,13.23.34,4.8.6,9.61.5,14.42A66.71,66.71,0,0,1,276,755c-1,4-2.81,7.71-4.19,11.6-1.23,3.49-1.18,7-1.53,10.63a46.89,46.89,0,0,1-4.45,15.39c-3.58,7.61-8.84,17.38-16.33,21.68-4.34,2.49-9.51,2.47-14.36,2.52q-7.83.08-15.66-.16c-9.82-.29-22,.57-30.89-4-3.12-1.61-5.93-3.65-9.27-4.83-4.87-1.72-9.77-2.41-14.41-4.82-7.26-3.78-13.26-9.51-20.17-13.84s-15.31-7.6-23.5-5.84c-3.24.69-6.72,2.16-8.72,4.93-1.71,2.37-3.06,13.13-7.53,10.22-1.62-1.06-3.13,1.54-1.51,2.59Z"/><path class="cls-2" d="M257.19,542.64a7.54,7.54,0,0,1,6.19-3.77,3.15,3.15,0,0,1,1.81.38c2,1.27.43,4.29-1.05,6.12-9,11.24-9.53,26.91-9.28,41.33.31,17.49,1.11,35.07,4.76,52.18,5.24,24.54,16.27,47.85,18.48,72.85.47-.3.24-1.1-.26-1.35a3,3,0,0,0-1.65-.08,8.27,8.27,0,0,1-8.32-5,19.42,19.42,0,0,1-.86-6.09c-1-18.1-12.22-34.36-13.73-52.43-.37-4.41-.16-8.88-1.08-13.21-1.14-5.39-4-10.26-5.64-15.51-2-6.41-2.26-13.24-2.48-20-.34-10.59-.68-21.23.48-31.77.75-6.86,2.24-13.91,6.36-19.45s11.45-9.18,18.06-7.19"/><path class="cls-2" d="M258.49,543.4c1.29-1.87,6.56-5.11,5.56-.74-.36,1.59-2.13,3.12-3,4.44a38.47,38.47,0,0,0-3.64,7.06,61.37,61.37,0,0,0-3.79,18.45c-1.07,15.22-.15,31,1.41,46.14,1.61,15.55,5.33,30.47,10,45.36,4.87,15.63,10,31.24,11.62,47.62a1.51,1.51,0,0,0,2.95.4,2.36,2.36,0,0,0-1.13-3.12c-.76-.4-1.45-.16-2.23-.21-3.24-.21-5.47-1.1-6.87-4.28-1.57-3.55-1-8.58-1.68-12.46a87.47,87.47,0,0,0-3-11.45C262.13,673,259,665.67,256.9,658c-2.25-8.22-1.51-16.61-3.25-24.84s-6.38-15.44-7.41-24.06-1-17.38-1-26,.14-17.56,2.45-25.85c2.58-9.26,10.12-18.71,20.88-16.14,1.88.45,2.68-2.44.8-2.89-11.29-2.7-20.38,5.88-23.86,16-4.64,13.44-3.42,29-3,43,.23,7.14.42,14.42,2.56,21.29,2.45,7.86,6,14.18,6.37,22.63.72,14.42,5.79,26.79,10.23,40.35a81.87,81.87,0,0,1,3.17,12.29c.59,3.66.24,7.67,1.32,11.23a9.49,9.49,0,0,0,3.72,5.13c.92.64,6.11,3.15,6.73,1.29l2.95.4c-1.74-17.91-7.58-34.84-12.81-51.94a231.16,231.16,0,0,1-10-57.53c-.76-16.38-2.94-36.09,5.24-51.06,1.67-3.06,8.56-9.57,4.19-13-3.46-2.73-8.4.84-10.36,3.69-1.1,1.59,1.5,3.1,2.59,1.51Z"/><path class="cls-2" d="M261.22,512.94a7.72,7.72,0,0,0-4.08,3.82c-2.61,4.77-2.2,10.55-1.72,16a5.2,5.2,0,0,0,.88,2.95,5.06,5.06,0,0,0,2.79,1.38c5.12,1.27,10.63,2,15.58.23a16.07,16.07,0,0,0,10.21-13,56.21,56.21,0,0,0,.06-6.06c0-1.55.06-3.24-.91-4.45A6,6,0,0,0,280.4,512a63.79,63.79,0,0,0-20.83-.87"/><path class="cls-2" d="M260.46,511.65c-3.94,1.9-5.81,5.86-6.51,10-.66,3.93-1.09,9.58.39,13.36s6.1,4,9.56,4.48c4.59.63,9.35.39,13.49-1.86,7.72-4.2,10.22-13.17,9-21.45-.65-4.3-3.5-5.3-7.43-6a67.47,67.47,0,0,0-19.36-.56c-1.9.21-1.92,3.21,0,3a70.54,70.54,0,0,1,9.5-.46c2.72.07,8.65-.25,10.93,1.27,3.63,2.42,3.78,6.76,3.33,10.55a14.34,14.34,0,0,1-4.28,8.72,15,15,0,0,1-9.49,4.08c-2.51.18-8.07.36-10.08-1.21-5.6-4.36-3.47-18.49,2.5-21.37,1.74-.84.22-3.43-1.51-2.59Z"/><path class="cls-2" d="M335.82,363.53c-3.43,3.5-10,2.82-12.91-1.1s-2.06-10,1.63-13.27A15.63,15.63,0,0,1,331,346c13.11-3.4,27.6,3.2,35.5,14.2s9.78,25.55,7.25,38.86a60,60,0,0,1-10.93,25.06c-8.07,10.63-19.68,17.88-30.13,26.18a171,171,0,0,0-38.17,42.56c-2.69,4.27-5.31,8.79-9.39,11.77s-10.12,4-14.07.82l26.3-37.75c5.82-8.35,11.67-16.74,18.78-24,8.58-8.78,18.83-15.79,27.35-24.63s15.42-20.33,14.81-32.58-11.21-24.38-23.42-23.08"/><path class="cls-2" d="M334.76,362.47a7.34,7.34,0,0,1-12.1-4.94c-.4-5.8,4.42-9.06,9.44-10.21,7.64-1.76,15.71.05,22.39,4,14.83,8.75,20.24,26.57,18.48,43-2,18.5-12.44,32.63-26.69,43.84-12.68,10-25.3,19.34-36.08,31.48A173.42,173.42,0,0,0,294.6,490c-4.62,7.08-12.38,21.2-22.77,14.18l.54,2.05c10.82-15.53,21.38-31.27,32.53-46.56a130.34,130.34,0,0,1,18.69-20.93c6.34-5.63,13.08-10.8,19.13-16.75,9.77-9.61,18.68-22.95,16.93-37.32-1.49-12.26-11.85-23.61-24.75-22.77-1.92.12-1.93,3.12,0,3,16.95-1.1,24.76,18.06,20.61,32.11-4.37,14.79-16.74,24.92-28.06,34.47-23.91,20.17-39.95,47.8-57.68,73.24a1.53,1.53,0,0,0,.54,2.05c7.1,4.79,15.3.68,20.17-5.26,3.08-3.75,5.39-8.1,8.1-12.12a168.69,168.69,0,0,1,11-14.51,171.39,171.39,0,0,1,24.2-23.49c8.69-6.92,18.13-13,25.82-21.13,14.07-14.84,20.48-37.55,14.64-57.4-5.09-17.29-21.56-31.63-40.39-28.92-7.74,1.11-15.91,6.24-13.94,15.28,1.7,7.83,11.15,10.36,17,5.35,1.47-1.26-.66-3.37-2.12-2.12Z"/><path class="cls-2" d="M177.43,388.39c1.26,1.19,3.74-.49,3.1-2.1-8.12-6.1-21-4.52-27.36,3.36-2.95,3.63-4.52,8.16-6,12.59-2,6-4.13,12.24-3.41,18.54.92,8,6.19,14.8,11.26,21.1,11.44,14.21,23.05,28.59,37.72,39.45,7.48,5.54,15.64,10.07,23.6,14.89a372.5,372.5,0,0,1,34.38,23.55,35.74,35.74,0,0,0,10.51-16.91c-18.17-2.8-34.33-14.4-44.83-29.5-4.68-6.73-8.4-14.21-14.11-20.11-6.51-6.73-15.29-11-21.3-18.22-10.71-12.8-10.2-31.58-6.31-47.81"/><path class="cls-2" d="M176.67,389.69c2.48,1.13,7-.83,5.15-4.15-2.2-4-11.11-4.72-15-4.37-14.9,1.33-20.21,15.3-23.46,28-1.92,7.47-1.6,14.54,1.93,21.48s9.2,13.12,14.16,19.19c11,13.4,22.58,26.29,37,36,8.79,5.93,18.15,11,27.08,16.69s17.81,12,26.34,18.54a1.51,1.51,0,0,0,1.82-.23,39.23,39.23,0,0,0,10.9-17.57,1.51,1.51,0,0,0-1-1.85A65.25,65.25,0,0,1,227.4,484c-9.43-9-14.4-21-23-30.56s-21.27-14.46-27-26.64-4.32-26.47-1.38-39.13c.44-1.88-2.46-2.68-2.89-.8-2.9,12.47-4.19,26.12.39,38.36,5,13.34,16.84,18.7,26.5,28,5.44,5.25,9.05,11.91,13.15,18.17a82,82,0,0,0,13.17,15.74,67.72,67.72,0,0,0,34.39,17.18l-1-1.85a36.15,36.15,0,0,1-10.13,16.25l1.82-.23c-14-10.76-28.83-20.15-44-29.28a160.58,160.58,0,0,1-39.62-34c-5.51-6.44-11.12-13-16.05-19.87-5.92-8.27-8-16.24-5.24-26.28,2.12-7.67,4.68-17.41,11.79-22a19.51,19.51,0,0,1,10.49-3,19,19,0,0,1,5.44.76,16.36,16.36,0,0,1,3.27,1.33q2,.51.63.93c-1.74-.79-3.27,1.79-1.51,2.59Z"/><path class="cls-5" d="M341.93,509.38l15.8,0a3.13,3.13,0,0,1,2.25.59,3.08,3.08,0,0,1,.69,1.88,130.32,130.32,0,0,1,1,15,1.67,1.67,0,0,1-1.91,2,93,93,0,0,1-14.64.56,2.06,2.06,0,0,1-.91-.18c-.64-.35-.73-1.22-.75-1.95l-.15-9.11c0-2.63-.13-5.41-1.51-7.65"/><path class="cls-5" d="M341.93,510.88l8.69,0c3.12,0,7.52-1.27,8.72,2.45.78,2.4.53,5.72.65,8.23a15.61,15.61,0,0,1,.13,3.75q.74,1.75-.92,1.82a5.14,5.14,0,0,1-2.39.46,57.52,57.52,0,0,1-7.32.34c-1.12,0-3.71.33-4.55-.7-.53-.64-.06-3.8-.07-4.55-.07-4.43.26-8.91-1.79-13-.87-1.72-3.46-.21-2.59,1.51,2,4,1.34,9.34,1.42,13.73,0,1.92-.32,4.52,1.71,5.6,2.57,1.36,7.45.4,10.28.25,2.24-.12,6.87.37,8.56-1.65,1.54-1.84.65-5.44.55-7.59-.17-3.46.13-7.85-1.07-11.13-1-2.65-3.34-2.53-5.77-2.55-4.74-.06-9.48,0-14.22,0a1.5,1.5,0,0,0,0,3Z"/><path class="cls-6" d="M78.6,459.7a168.45,168.45,0,0,1,15.54-71.84c1.28-2.76,2.72-5.59,5.19-7.37s6.25-2.1,8.36.08a9.43,9.43,0,0,1,2,4.09A149.25,149.25,0,0,1,113.57,449c-.61,3.81-1.36,7.72-.48,11.48,1.46,6.28,7.1,10.7,9.77,16.57,3.06,6.72,1.93,14.48,2.3,21.85a4.36,4.36,0,0,0,1,3,3.82,3.82,0,0,0,3.46.55c8.59-1.91,14.43-13.42,23-11.29,3.92,1,6.61,4.88,7.23,8.87s-.49,8.06-1.94,11.83c-6.75,17.51-21,31.24-28.33,48.52a68.67,68.67,0,0,0,.47,54c3.53,7.95,8.56,15.13,12.51,22.88,8.38,16.45,11.74,35.61,8.27,53.74a15.66,15.66,0,0,1-2.68,7,15.47,15.47,0,0,1-6.35,4.18c-14.49,6.08-30.55,6.91-46.24,7.67C70.88,711.05,45,712,22.94,701c-2.61-1.3-5.34-3-6.28-5.75-.67-2-.29-4.15.18-6.18,5.9-25.6,23.75-47.11,30.17-72.58a22.61,22.61,0,0,0,.85-9c-.74-4.64-3.87-8.46-6.54-12.33C31.29,580.54,26.93,562.64,26,545s1.47-35.35,3.83-52.9c.45-3.38.94-6.85,2.67-9.79a21.25,21.25,0,0,1,6.54-6.41,59.79,59.79,0,0,1,29.76-10.37c4.48-.3,9.31-.19,13-2.76l-4-3.55"/><path class="cls-6" d="M80.1,459.7a169.73,169.73,0,0,1,6.14-46A165.49,165.49,0,0,1,94,391.91c1.36-3.11,2.71-7,5.29-9.39,3.45-3.14,7.61-1.63,9,2.54.67,2.05,1.15,4.19,1.65,6.28a148.16,148.16,0,0,1,3.54,46.58c-.56,6.78-2.85,14.08-2.09,20.91.67,6,4.8,10.25,8,15.08,4.06,6.1,4.22,12.72,4.24,19.82,0,3.46-.89,9.23,3.6,10.27,9.89,2.28,19.73-19.24,28.77-9,5.48,6.24,1,15.9-2,22.14a155.59,155.59,0,0,1-11.28,18.31c-7.61,11.15-15.1,22.37-18.13,35.73a70.67,70.67,0,0,0,1.66,37.32c4.5,13.78,14.05,25.11,19.09,38.67s7,29.06,4.1,43.43c-.94,4.56-2.62,7.5-6.93,9.63a59.37,59.37,0,0,1-11.31,3.9,133.66,133.66,0,0,1-24.69,3.58c-14,1-28.11,1.71-42.11,1.1a125.77,125.77,0,0,1-21.7-2.65c-7.06-1.56-15.55-3.66-21.47-8-6.4-4.68-1.21-15.44,1.11-21.54a215.68,215.68,0,0,1,9.65-21C38,643.66,44.48,631.6,48,618.48c1.69-6.23,2.15-11.78-1-17.56-4-7.26-9.09-13.43-12.25-21.22-6.48-15.95-8-33.39-7.24-50.44.36-8.52,1.26-17,2.31-25.47.61-4.88,1-9.89,2-14.7a17.86,17.86,0,0,1,8-11.92,58,58,0,0,1,22.75-9.39c6.67-1.21,14-.13,20-3.74a1.51,1.51,0,0,0,.3-2.36l-4-3.55c-1.44-1.27-3.57.84-2.12,2.12l4,3.55.3-2.36c-6.34,3.81-15.44,2.41-22.57,4.14A60.9,60.9,0,0,0,39,474.1c-5.4,3.62-8.82,7.7-10.09,14.18-1.62,8.29-2.36,16.89-3.23,25.29-1.67,16.25-2.18,32.74.91,48.86A96.28,96.28,0,0,0,33.36,584c3.11,6.86,8.12,12.46,11.42,19.13,4,8-.31,17.91-3.37,25.64s-6.84,15.07-10.59,22.43c-6.22,12.2-13.9,25.62-15.8,39.39-.9,6.57,3.19,9.83,8.71,12.44a87,87,0,0,0,20.56,6.6c15.15,3,30.69,2.66,46,2,15.92-.7,32.38-1.09,47.59-6.36,5.28-1.83,10.83-3.89,13.1-9.42,2.59-6.3,2.73-14.41,2.58-21.1-.35-15.12-4.9-29.65-12.28-42.77-4.17-7.41-8.87-14.56-11.75-22.62a67.13,67.13,0,0,1-3.83-23.55c.26-16.86,7.39-31,16.64-44.66,7.36-10.86,18.32-23.91,19-37.63.59-11-9.34-17.49-18.62-11.3-3,2-14,13-16.16,6.68-1.13-3.31,0-8.51-.18-12a29.41,29.41,0,0,0-2.17-10.23c-2.78-6.29-9.06-10.91-9.94-18-1-7.76,1.84-16.56,2.29-24.41a148.39,148.39,0,0,0-5.31-49.07c-1.34-4.69-4-8.53-9.4-7.39C96,379,93.53,385.45,91.36,390.4A170.28,170.28,0,0,0,78.6,436.07a175.07,175.07,0,0,0-1.5,23.63,1.5,1.5,0,0,0,3,0Z"/><path class="cls-6" d="M390.42,565.55a85.7,85.7,0,0,0-.83-42.89c-1.17-4.16-2.67-8.32-2.74-12.64s1.6-9,5.37-11.13l21.52,33.72c2.44,3.82,4.94,7.72,8.47,10.57s8.32,4.53,12.67,3.23c5.3-1.58,8.43-6.88,11.05-11.75l24.45-45.44c1.75-3.26,5.76-7,8.43-4.42,1.18,1.13,1.25,3,1.24,4.59l-.24,39.33c0,2.95.5,6.67,3.32,7.52a6.23,6.23,0,0,0,4.45-.83c14-7,19.74-23.54,29.51-35.75,2.51-3.13,6.79-6.25,10.15-4.06,2.57,1.68,2.68,5.37,2.28,8.41-2.84,21.38-16.47,39.85-21.61,60.8l22.2-16.2c8.42-6.14,17.75-12.57,28.15-12.05,2.41,4.84,1.11,10.78-1.51,15.51s-6.44,8.67-9.48,13.14c-5.75,8.45-8.56,18.51-11.28,28.37l19.79-.59a6.89,6.89,0,0,1,3.54.52c3.66,2,1,7.6-1.94,10.52a172.82,172.82,0,0,1-36.09,27,44.84,44.84,0,0,0-8.12,5.24c-2.89,2.57-5,5.93-7,9.23l-18.67,30.42a12.82,12.82,0,0,1-3.19,3.92,12.48,12.48,0,0,1-5.64,1.77,220.8,220.8,0,0,1-58.39.4C400.83,679.52,380,673.3,369,657.08c-5.64-8.34-8-18.5-8.83-28.53-1.2-14.76,1-30.37,9.64-42.42,5.71-8,13.81-13.9,21.77-19.66"/><path class="cls-6" d="M391.86,565.95a89.36,89.36,0,0,0,1.69-31.1,100,100,0,0,0-3.3-15.26c-1.86-6.44-3.92-14.89,2.71-19.4l-2.05-.54c7.17,11.24,14.3,22.51,21.52,33.72,4.66,7.24,11.11,16.16,21,14.86,8.91-1.17,12.92-11.16,16.63-18.06l18.8-35c1.12-2.08,2.79-6.8,5-8.1,6.32-3.8,4.71,6.32,4.7,8.18L478.37,515c0,5.32-.63,11,.06,16.26.35,2.67,1.42,5.62,4.28,6.47,7,2.08,15.76-8.37,19.36-13.06,5.84-7.61,9.86-16.58,16.05-23.9a17,17,0,0,1,2.17-2.26c3.9-3.14,7.85-1.33,7.85,3.54a40.73,40.73,0,0,1-1.69,9.71,123.63,123.63,0,0,1-6.53,18.3c-4.88,11.34-10.41,22.4-13.49,34.41-.3,1.16,1.09,2.5,2.2,1.69,8.07-5.89,16.09-11.84,24.21-17.65,7.6-5.44,15.72-10.54,25.38-10.39l-1.45-1.1c4.73,11.44-6.29,20.22-11.78,28.91-5.24,8.31-7.91,17.92-10.5,27.3a1.51,1.51,0,0,0,1.45,1.9l9.9-.29c3-.09,7-.94,9.9-.29,8.87,2-1.29,10.32-4.54,13.23A171.34,171.34,0,0,1,523.51,628c-4.35,2.55-9.06,4.7-12.63,8.35-3.77,3.86-6.35,8.89-9.14,13.45L492.4,665c-3.4,5.55-6.4,13.78-13.42,15-12.81,2.27-26.31,2.53-39.28,2.05-11.54-.43-23.21-1.55-34.43-4.37-9.89-2.48-19.68-6.41-27.5-13.11-8.91-7.63-13.51-18.37-15.32-29.77-2-12.59-1.48-26.19,3.34-38.11,5.18-12.84,15.7-21.07,26.59-29,1.55-1.12.05-3.73-1.51-2.59-9.9,7.18-19.93,14.69-25.72,25.77s-7.32,23.73-6.55,36c.75,11.9,3.6,24.07,11.11,33.6,6.5,8.25,15.74,13.7,25.5,17.28,11.72,4.3,24.32,6,36.71,6.87a219.83,219.83,0,0,0,45.2-1.35c4.88-.66,8.12-1.47,11-5.56,4.76-6.81,8.78-14.28,13.13-21.36,3.64-5.93,6.89-12.93,11.79-17.92s12.09-7.77,17.94-11.53a175.32,175.32,0,0,0,18.46-13.66c4.3-3.64,9.87-7.5,12.22-12.78,1.36-3.07,1.44-6.77-1.93-8.42-2.82-1.38-6.9-.49-9.88-.4l-13.86.41,1.45,1.9c3.31-12,7.07-23,14.79-32.9,5.57-7.14,11.34-15.59,7.48-24.91a1.57,1.57,0,0,0-1.45-1.1c-9-.14-16.88,3.9-24.16,8.88-9.16,6.26-18,13-26.94,19.57l2.2,1.69c3-11.76,8.4-22.6,13.19-33.7,3.87-9,8.14-18.94,8.61-28.84.4-8.35-6.5-11.91-13-6.34-6.9,5.95-10.89,15.59-16,23a51.08,51.08,0,0,1-9.87,11.23c-2.21,1.77-7.36,5.93-10.23,2.93-1.76-1.85-.8-7.47-.79-9.7l.11-18.68.06-9.83c0-2.76.52-6.05-.19-8.78-2.07-7.89-9.69-2.18-12.24,2-7.25,11.74-13.2,24.54-19.74,36.7-2.93,5.45-5.54,12.06-9.9,16.57-7.45,7.71-16.61,1.31-21.57-5.61-8.72-12.18-16.28-25.36-24.34-38a1.52,1.52,0,0,0-2.05-.54c-9.27,6.31-5.46,17.44-3.08,26.34a85.49,85.49,0,0,1,.6,41.22c-.43,1.88,2.46,2.68,2.89.8Z"/><path class="cls-7" d="M219.35,126.59a60.77,60.77,0,0,0,34.11-13.8c7.94,12.51,12.23,26.93,18.32,40.44,27.71,61.46,96.65,101.63,163.79,95.44a1037.38,1037.38,0,0,1-48.63-108.92c-7.64-20.16-14.66-40.57-20.32-61.37-3.33-12.24-6.33-24.91-13.54-35.35-9.69-14-25.8-22.22-42-27.51-14.36-4.69-30.51-7.41-44.21-1.06-5,2.33-9.51,5.8-14.69,7.78-16,6.1-35.39-3-50.44,5.11-4.18-9.6-14.24-15.24-24.15-18.65C133.24-6.55,79.5,13.28,55.7,53.67c-15.55,26.39-18.54,58.44-16.43,89s8.9,60.64,11.43,91.17c1.59,19.11,1.36,39-6.52,56.53S19.17,322.32,0,321.94a120.2,120.2,0,0,0,61.85,22.23c8.85.59,18,.14,26.17-3.28,13-5.42,22-17.73,27.11-30.85s6.77-27.26,9.18-41.12c7.06-40.64,20.47-79.87,33.83-118.89,1.84-5.38,3.85-11,8.16-14.73,4.8-4.14,11.5-5.08,17.79-5.85L224,124.6"/><path d="M225.81,126.28a88,88,0,0,1,23.83-13.22c1.8-.66,1-3.56-.8-2.89a92.72,92.72,0,0,0-25.15,14c-1.52,1.19.62,3.29,2.12,2.12Z"/><path d="M237.85,68.84c-.65,9.74,2.51,19,5.59,28.08q4.91,14.51,10.84,28.65A432.86,432.86,0,0,0,281.16,179c9.74,16.41,20.18,34.05,34.45,47,13.72,12.44,31.62,18.49,48.94,24.06,22.34,7.19,45.46,12.66,69.07,11.44a1.52,1.52,0,0,0,1.06-2.56C412.61,238.14,402.06,209,392.59,181q-8-23.82-14.91-48C373.16,117,369,101,362.94,85.54c-9.77-25-24.83-52.79-48.43-67.23-12.18-7.45-25.45-8.9-39.48-8-6.27.4-12.51,1.28-18,4.54s-9.83,8.1-13.64,13.11c-21,27.62-22.38,63.78-23.31,97a1.55,1.55,0,0,0,1.1,1.45,3.41,3.41,0,0,0,4.29-1c1.35-1.39-.77-3.51-2.12-2.12l-1.37.2,1.1,1.45c.82-29.67,1.8-61.09,17.38-87.34a69.74,69.74,0,0,1,12.77-16.22c6.55-5.93,14-7.67,22.61-8.17,14.71-.86,28,1.18,40.33,9.73,23.48,16.34,38,45.89,47.09,72.15,10.19,29.44,17.31,59.88,27.36,89.4,9.41,27.64,20.2,56.05,41.92,76.51l1.06-2.56c-20.19,1-40-2.85-59.32-8.56-17.66-5.23-36.65-10.75-51.58-21.94-15.32-11.48-25.84-29-35.7-45.11a430.1,430.1,0,0,1-26.41-50.2q-6.87-15.47-12.5-31.45c-3.65-10.36-8-21.22-7.24-32.39.13-1.93-2.87-1.92-3,0Z"/><path d="M221.88,121.6A371.87,371.87,0,0,0,211.18,61c-4.34-16.38-8.54-35.85-22.27-47.13C177.43,4.4,162.13,1.09,147.63.21,128.36-1,111.16,2.78,94.88,13.33A143.89,143.89,0,0,0,58.38,48C47.55,62.4,38.59,78,37.48,96.32c-.63,10.43-.37,20.94-.46,31.39-.09,10.12-.81,20.49.45,30.56S43,177.5,45,187.33c2.11,10.54,2.61,21.3,3.09,32,1,22.64,2.22,46.24-5.3,68-6.26,18.12-19.16,34.72-37.76,41a1.52,1.52,0,0,0-.36,2.74c9.69,5.65,20.41,8.62,31.48,10.06,10.72,1.4,22.33,2.41,33.08.9s18.52-7.33,25.31-15.36a172.34,172.34,0,0,0,19.39-28.8c23.88-43.8,30.78-93.88,38.91-142.39,1.11-6.63.92-16.65,7.21-20.55,5.92-3.66,13-6,19.69-7.69a82.76,82.76,0,0,1,40.69.42,1.51,1.51,0,0,0,1.85-1.85,6.94,6.94,0,0,0-3.63-4.63,1.5,1.5,0,0,0-1.51,2.59l2.26,2.84,1.85-1.85c-20.45-5.34-43.49-3.33-62,7.22a12.81,12.81,0,0,0-6.63,8.13c-1.87,6.51-2.45,13.65-3.56,20.33-2.12,12.81-4.18,25.63-6.55,38.4-4.47,24.14-10,48.17-18.92,71.11a219,219,0,0,1-15.59,32.42C102,312.35,95.35,322.7,86.8,330.54c-11.27,10.33-26,9.59-40.34,8.65-14.05-.92-28-3.46-40.31-10.64l-.36,2.74c30.78-10.46,43.47-43.53,45.53-73.44,1.32-19.12.42-39-1.53-58A132,132,0,0,0,44.2,173a95.4,95.4,0,0,1-4.3-30.7q.12-15.6.27-31.19c.08-9.88-.16-20,2.76-29.51,5.25-17.17,17.68-33.38,30-46.17S100.68,10.54,118,5.58c16.55-4.73,36.85-3.61,53.11,2,9,3.07,17.36,8.27,22.9,16.12,6.16,8.73,9,19.65,11.95,29.79a366.1,366.1,0,0,1,12.9,68.15c.18,1.91,3.18,1.92,3,0Z"/><path d="M201.56,28.95c6.07-2.07,13.25-1.13,19.57-1.12,5.54,0,15.68-1.82,19.6,3,1.22,1.5,3.33-.63,2.12-2.12-4.17-5.14-12-3.89-17.83-3.9-7.73,0-16.82-1.31-24.26,1.22-1.82.62-1,3.52.8,2.89Z"/><path d="M260.87,211.57c-3.61,7-10.7,28.94,2.84,30.62,13.11,1.63,14.71-16.17,12-25-1.41-4.55-4.77-9.58-9.86-10.32-5.26-.77-8.53,4-9.33,8.62-.93,5.39-2.49,30,9.82,21.91,6.21-4.1,10.84-26.63-1.56-22.63-7.94,2.56-8,22.81.06,19,4-1.87,5.37-10,4.3-13.71-1.15-4-4.61-3.3-6.79-.51-2.5,3.21-4.41,9.46.46,11.64a4,4,0,0,0,5.51-4.8c-1.09-4.15-6.39-4-8.15-.4s1.63,7.93,5.32,5.73c3-1.8,4-8.24.67-10.18-5.47-3.23-7.68,7.57-7.77,10.67a1.52,1.52,0,0,0,2.56,1.06c1.61-1.34,3.26-3.22,2.3-5.46a3,3,0,0,0-4.41-1.45c-1.54,1-2.5,3.89-2.17,5.63a3.75,3.75,0,0,0,1.23,2.14,21.9,21.9,0,0,0,4.42,1.29,1.52,1.52,0,0,0,1.85,1.85,3.3,3.3,0,0,0,.89-6.12,1.53,1.53,0,0,0-2.05.54l-.92.17.54,2.05a24.59,24.59,0,0,0,3.48-9.63c.27-1.85-2.38-2.72-2.89-.8a10.28,10.28,0,0,0-.32,4.32,1.51,1.51,0,0,0,2.95.4,9.77,9.77,0,0,1,2.22-4.33l-2.36-.3c3.23,5.54-3.11,7.27-4,11.76a3.89,3.89,0,0,0,2.52,4.55c7.52,2.9,7.16-8.82,8.85-12.42l-2.74-1.16a82.14,82.14,0,0,1-2.43,11.42,1.51,1.51,0,0,0,2.74,1.16c3.66-5.64,5.76-13,4.11-19.73-.65-2.62-1.91-3.15-3.93-4.65-2.3-1.7-4.44-4.39-7.61-4-3,.36-5,4-2.26,6.17,3.52,2.84,5.19-2.34,4-5a1.51,1.51,0,0,0-2.36-.3c-2.4,3.1-4.55,9.09.72,11,3.56,1.27,6.43-2,5.84-5.36l-2.89.8.79,2.26a1.52,1.52,0,0,0,2.51.66c2.71-3,3.45-7.26.49-10.45-2.1-2.26-6.65-3.67-8.92-.83-5.13,6.39,10.6,7.86,6.87,1.62-1.81-3-5.06.38-6.19,2.18-2.82,4.5-2.52,10.46-2.71,15.54-.14,3.74-2,10.75,2.37,12.8,3.87,1.8,7-1.77,9-4.58,1.11-1.58-1.49-3.08-2.59-1.51q-1.7,4.05-6.08.86l.14-3.78c.09-2.52.16-5,.28-7.56a30.85,30.85,0,0,1,.76-6.76,12.09,12.09,0,0,1,1.4-3.49q-2-7.77,3,3.85l2.51.66-.79-2.26a1.5,1.5,0,0,0-2.89.8q-4.79-1.64-1.56-4.3l-2.36-.3a7.25,7.25,0,0,1,5.38,2.72q.8.62,1.62,1.23c2.43,2.17,3,4.05,2.92,7.3a24.54,24.54,0,0,1-4.18,13l2.74,1.16a82.14,82.14,0,0,0,2.43-11.42c.21-1.51-1.94-2.85-2.74-1.16a17,17,0,0,0-1.41,5q.81,3-1.92,3-2.76,1.26-.75-.44c.37-.7,1.3-1.32,1.75-2a8.47,8.47,0,0,0,.13-9.48,1.51,1.51,0,0,0-2.36-.3,16.21,16.21,0,0,0-3,5.65l2.95.4a6.06,6.06,0,0,1,.21-3.52l-2.89-.8a22.69,22.69,0,0,1-3.18,8.91,1.52,1.52,0,0,0,.54,2.05,3.47,3.47,0,0,0,5-1.25l-2.05.54-.17.64,1.85,1.85c.36-1.48.35-2.4-1-3.45a8.49,8.49,0,0,0-1.86-.77,6.35,6.35,0,0,0-1.44-.05q-.8-2.59-2.06-.8l2.56,1.06a15.33,15.33,0,0,1,.7-4.56l1.75-3.2q2.09,5,.67.38-1.86-2.7.66-2.29,1.62-.75,1.22.66c.39,1.23-.52,3.43-.94,4.55-.53,1.41-1.95,5.59-3.81.53a9,9,0,0,1,.1-2.86,12.46,12.46,0,0,1,.62-4l2.42-3.41,4.79,1.59c1.42,1.86-.28,7.33-1,9.36-.51,1.41-1.1,3.24-2.26,4.25q-1.22,2.43-3.92.07-3.48.53-3.21-2c-.69-2.08-.07-5.28,0-7.48a46.24,46.24,0,0,1,.37-7.71c.33-1.77.7-3.36,2.1-4.62q1.38-2.41,4.17-.49a3.54,3.54,0,0,1,3.64,1.09c2.08,1.55,3.22,4.93,3.78,7.28,1.1,4.61,1.33,10.5-.9,14.79-1.58,3-4.56,5.39-8.14,5-4.72-.56-5.24-5.6-5.2-9.21a38.36,38.36,0,0,1,4.53-16.85c.88-1.72-1.71-3.24-2.59-1.51Z"/><path d="M269.59,233.5a7.7,7.7,0,0,1-4.06-.54l.66,2.51a23.67,23.67,0,0,0,5.26-19.54,1.51,1.51,0,0,0-2.51-.66,16.56,16.56,0,0,0-3.24,4.39c-.88,1.71,1.71,3.23,2.59,1.51a14.19,14.19,0,0,1,2.77-3.78l-2.51-.66a20.39,20.39,0,0,1-4.49,16.62,1.53,1.53,0,0,0,.66,2.51,9.14,9.14,0,0,0,4.86.65c1.89-.22,1.92-3.23,0-3Z"/><path d="M181.87,212.57c-3.61,7-10.7,28.94,2.84,30.62,13.11,1.63,14.71-16.17,12-25-1.41-4.55-4.77-9.58-9.86-10.32-5.26-.77-8.53,4-9.33,8.62-.93,5.39-2.49,30,9.82,21.91,6.21-4.1,10.84-26.63-1.56-22.63-7.94,2.56-8,22.81.06,19,4-1.87,5.37-10,4.3-13.71-1.15-4-4.61-3.3-6.79-.51-2.5,3.21-4.41,9.46.46,11.64a4,4,0,0,0,5.51-4.8c-1.09-4.15-6.39-4-8.15-.4s1.63,7.93,5.32,5.73c3-1.8,4-8.24.67-10.18-5.47-3.23-7.68,7.57-7.77,10.67a1.52,1.52,0,0,0,2.56,1.06c1.61-1.34,3.26-3.22,2.3-5.46a3,3,0,0,0-4.41-1.45c-1.54,1-2.5,3.89-2.17,5.63a3.75,3.75,0,0,0,1.23,2.14,21.9,21.9,0,0,0,4.42,1.29,1.52,1.52,0,0,0,1.85,1.85,3.3,3.3,0,0,0,.89-6.12,1.53,1.53,0,0,0-2.05.54l-.92.17.54,2.05a24.59,24.59,0,0,0,3.48-9.63c.27-1.85-2.38-2.72-2.89-.8a10.28,10.28,0,0,0-.32,4.32,1.51,1.51,0,0,0,2.95.4,9.77,9.77,0,0,1,2.22-4.33l-2.36-.3c3.23,5.54-3.11,7.27-4,11.76a3.89,3.89,0,0,0,2.52,4.55c7.52,2.9,7.16-8.82,8.85-12.42l-2.74-1.16a82.14,82.14,0,0,1-2.43,11.42,1.51,1.51,0,0,0,2.74,1.16c3.66-5.64,5.76-13,4.11-19.73-.65-2.62-1.91-3.15-3.93-4.65-2.3-1.7-4.44-4.39-7.61-4-3,.36-5,4-2.26,6.17,3.52,2.84,5.19-2.34,4-5a1.51,1.51,0,0,0-2.36-.3c-2.4,3.1-4.55,9.09.72,11,3.56,1.27,6.43-2,5.84-5.36l-2.89.8.79,2.26a1.52,1.52,0,0,0,2.51.66c2.71-3,3.45-7.26.49-10.45-2.1-2.26-6.65-3.67-8.92-.83-5.13,6.39,10.6,7.86,6.87,1.62-1.81-3-5.06.38-6.19,2.18-2.82,4.5-2.52,10.46-2.71,15.54-.14,3.74-2,10.75,2.37,12.8,3.87,1.8,7-1.77,9-4.58,1.11-1.58-1.49-3.08-2.59-1.51q-1.7,4.05-6.08.86l.14-3.78c.09-2.52.16-5,.28-7.56a30.85,30.85,0,0,1,.76-6.76,12.09,12.09,0,0,1,1.4-3.49q-2-7.77,3,3.85l2.51.66-.79-2.26a1.5,1.5,0,0,0-2.89.8q-4.79-1.64-1.56-4.3l-2.36-.3a7.25,7.25,0,0,1,5.38,2.72q.8.62,1.62,1.23c2.43,2.17,3,4.05,2.92,7.3a24.54,24.54,0,0,1-4.18,13l2.74,1.16a82.14,82.14,0,0,0,2.43-11.42c.21-1.51-1.94-2.85-2.74-1.16a17,17,0,0,0-1.41,5q.81,3-1.92,3-2.76,1.26-.75-.44c.37-.7,1.3-1.32,1.75-2a8.47,8.47,0,0,0,.13-9.48,1.51,1.51,0,0,0-2.36-.3,16.21,16.21,0,0,0-3,5.65l2.95.4a6.06,6.06,0,0,1,.21-3.52l-2.89-.8a22.69,22.69,0,0,1-3.18,8.91,1.52,1.52,0,0,0,.54,2.05,3.47,3.47,0,0,0,5-1.25l-2.05.54-.17.64,1.85,1.85c.36-1.48.35-2.4-1-3.45a8.49,8.49,0,0,0-1.86-.77,6.35,6.35,0,0,0-1.44-.05q-.8-2.59-2.06-.8l2.56,1.06a15.33,15.33,0,0,1,.7-4.56l1.75-3.2q2.09,5,.67.38-1.86-2.7.66-2.29,1.62-.75,1.22.66c.39,1.23-.52,3.43-.94,4.55-.53,1.41-1.95,5.59-3.81.53a9,9,0,0,1,.1-2.86,12.46,12.46,0,0,1,.62-4l2.42-3.41,4.79,1.59c1.42,1.86-.28,7.33-1,9.36-.51,1.41-1.1,3.24-2.26,4.25q-1.22,2.43-3.92.07-3.48.53-3.21-2c-.69-2.08-.07-5.28,0-7.48a46.24,46.24,0,0,1,.37-7.71c.33-1.77.7-3.36,2.1-4.62q1.38-2.41,4.17-.49a3.54,3.54,0,0,1,3.64,1.09c2.08,1.55,3.22,4.93,3.78,7.28,1.1,4.61,1.33,10.5-.9,14.79-1.58,3-4.56,5.39-8.14,5-4.72-.56-5.24-5.6-5.2-9.21a38.36,38.36,0,0,1,4.53-16.85c.88-1.72-1.71-3.24-2.59-1.51Z"/><path d="M184.23,220a19.42,19.42,0,0,0,.53,8.23,1.51,1.51,0,0,0,2.89,0,14,14,0,0,0,.53-7.8,1.51,1.51,0,0,0-2.74-.36,5.16,5.16,0,0,0-.46,3.66l2.89-.8-.08-.32-.15,1.16-.7.45a1.51,1.51,0,0,0,2.59,0l1.26-2.78-2.8-.76.11,2.19c.1,1.92,3,1.94,3,0V220h-3a49.55,49.55,0,0,1-.64,9.53l2.95.4,0-4.61a1.5,1.5,0,0,0-3,0l0,1.18c-.05,1.66,2.64,2.09,2.95.4a9.34,9.34,0,0,0-.66-5.68,1.53,1.53,0,0,0-2.05-.54,7.35,7.35,0,0,0-4,8.91c.58,1.83,3.48,1,2.89-.8a4.41,4.41,0,0,1,2.61-5.52l-2.05-.54a5.65,5.65,0,0,1,.36,3.37l2.95.4,0-1.18h-3l0,4.61c0,1.64,2.66,2.11,2.95.4A53.68,53.68,0,0,0,191.1,220a1.5,1.5,0,0,0-3,0v2.81h3l-.11-2.19c-.07-1.35-2.13-2.21-2.8-.76l-1.26,2.78h2.59c-.69-1-1.74-2.08-3.11-1.66a2.16,2.16,0,0,0-1.44,2.68c.46,1.89,3.28,1.08,2.89-.8l.16-1.35-2.74-.36a11,11,0,0,1-.53,6.21h2.89a15.83,15.83,0,0,1-.53-6.63c.26-1.89-2.63-2.7-2.89-.8Z"/><path d="M127.58,263a308.45,308.45,0,0,0,1.22,48.89c1.39,13.06,2.94,26.63,10,38,12.47,20.26,36.15,30.59,57.68,38.21,25.75,9.12,54.65,14.47,81,4.31a70.81,70.81,0,0,0,29.34-21.4c8.42-10.22,16.05-22.06,20.87-34.42,5.86-15,5-31.23,4.69-47.07l-1.14-54.38c0-1.93-3-1.93-3,0l.91,43.7c.29,13.78,1.44,27.93-.43,41.64-1.92,14-8.62,26.29-16.37,37.92-7.22,10.86-15.7,20.81-27.26,27.18-23.78,13.12-52.16,10.62-77.27,3.07C185.9,382.15,161.4,373,146.2,355.08c-10.43-12.27-12.75-27.65-14.4-43.17A309,309,0,0,1,130.58,263c.1-1.93-2.9-1.92-3,0Z"/><path d="M331.76,365.47a7.34,7.34,0,0,1-12.1-4.94c-.4-5.8,4.42-9.06,9.44-10.21,7.64-1.76,15.71.05,22.39,4,14.83,8.75,20.24,26.57,18.48,43-2,18.5-12.44,32.63-26.69,43.84-12.68,10-25.3,19.34-36.08,31.48A173.42,173.42,0,0,0,291.6,493c-4.62,7.08-12.38,21.2-22.77,14.18l.54,2.05c10.82-15.53,21.38-31.27,32.53-46.56a130.34,130.34,0,0,1,18.69-20.93c6.34-5.63,13.08-10.8,19.13-16.75,9.77-9.61,18.68-22.95,16.93-37.32-1.49-12.26-11.85-23.61-24.75-22.77-1.92.12-1.93,3.12,0,3,16.95-1.1,24.76,18.06,20.61,32.11-4.37,14.79-16.74,24.92-28.06,34.47-23.91,20.17-39.95,47.8-57.68,73.24a1.53,1.53,0,0,0,.54,2.05c7.1,4.79,15.3.68,20.17-5.26,3.08-3.75,5.39-8.1,8.1-12.12a168.69,168.69,0,0,1,11-14.51,171.39,171.39,0,0,1,24.2-23.49c8.69-6.92,18.13-13,25.82-21.13,14.07-14.84,20.48-37.55,14.64-57.4-5.09-17.29-21.56-31.63-40.39-28.92-7.74,1.11-15.91,6.24-13.94,15.28,1.7,7.83,11.15,10.36,17,5.35,1.47-1.26-.66-3.37-2.12-2.12Z"/><path d="M180.67,390.69c2.48,1.13,7-.83,5.15-4.15-2.2-4-11.11-4.72-15-4.37-14.9,1.33-20.21,15.3-23.46,28-1.92,7.47-1.6,14.54,1.93,21.48s9.2,13.12,14.16,19.19c11,13.4,22.58,26.29,37,36,8.79,5.93,18.15,11,27.08,16.69s17.81,12,26.34,18.54a1.51,1.51,0,0,0,1.82-.23,39.23,39.23,0,0,0,10.9-17.57,1.51,1.51,0,0,0-1-1.85A65.25,65.25,0,0,1,231.4,485c-9.43-9-14.4-21-23-30.56s-21.27-14.46-27-26.64-4.32-26.47-1.38-39.13c.44-1.88-2.46-2.68-2.89-.8-2.9,12.47-4.19,26.12.39,38.36,5,13.34,16.84,18.7,26.5,28,5.44,5.25,9.05,11.91,13.15,18.17a82,82,0,0,0,13.17,15.74,67.72,67.72,0,0,0,34.39,17.18l-1-1.85a36.15,36.15,0,0,1-10.13,16.25l1.82-.23c-14-10.76-28.83-20.15-44-29.28a160.58,160.58,0,0,1-39.62-34c-5.51-6.44-11.12-13-16.05-19.87-5.92-8.27-8-16.24-5.24-26.28,2.12-7.67,4.68-17.41,11.79-22a19.51,19.51,0,0,1,10.49-3,19,19,0,0,1,5.44.76,16.36,16.36,0,0,1,3.27,1.33q2,.51.63.93c-1.74-.79-3.27,1.79-1.51,2.59Z"/><path d="M253.58,520.11c-.91,5.12-1.78,10.81,1.37,15.38,2.81,4.08,7.58,4.56,12.13,4.62,10.09.14,18.85-2.65,20.76-13.69.66-3.82,1.38-9.28-.57-12.86-2.28-4.19-8.55-5.41-12.8-6-10-1.29-21.75,4.51-20.63,16.05.18,1.9,3.19,1.92,3,0-.88-9,7.86-13.83,15.88-13.24,4.82.35,12.18,2.14,12.61,7.87a30.14,30.14,0,0,1-.65,8.72c-1.81,7.89-8.08,10-15.44,10.1-3.57.06-8.24.4-11-2.33-3.61-3.56-2.55-9.48-1.77-13.88.34-1.89-2.56-2.7-2.89-.8Z"/><path d="M79.5,817.44c8.72,1.94,17.86,3.9,25.35,9.05,5.45,3.75,17.15,17.09,8.83,22.84-8,5.51-20.61-2-26.71-7.49a63.43,63.43,0,0,1-8.38-9.47,33.14,33.14,0,0,1-3.65-5.51c-2.1-4.56.31-10,5.76-8,1.82.65,2.61-2.25.8-2.89a8,8,0,0,0-10,3.94C69,825.33,73.9,831.15,77,835.19c7.56,9.93,18.44,19.12,31.66,18.75,12.71-.36,12.15-13,6.49-21.37-7.84-11.62-22-15.16-34.83-18-1.88-.42-2.68,2.47-.8,2.89Z"/><path d="M73.29,817.74a5.22,5.22,0,0,0,3.64-1.15c2.52-1.8,4.15-3.6,7.59-3.62,6.07,0,12.77,4.37,17.71,7.57a67.3,67.3,0,0,1,13.49,11.27c2.33,2.6,4.89,5.93,5,9.61s-2.74,7.5-6.72,7.21c-1.93-.14-1.92,2.86,0,3,5.16.38,9.24-3.92,9.68-9,.61-7-5.32-12.83-10-17.11a73.76,73.76,0,0,0-20.19-13.19c-3.69-1.59-8.19-3.11-12.27-2.25-2.75.58-5.37,4.7-7.9,4.61-1.93-.07-1.93,2.93,0,3Z"/><path d="M83.6,812c8.58-6.73,20.76-10.48,31.6-7.79,6.83,1.7,9.13,7.79,8.61,14.33-.39,4.93-1.37,13.1-5.93,16-1.63,1-.13,3.62,1.51,2.59,5.32-3.34,6.29-10.29,7.12-16,.87-6,.34-13-4.79-17.15-4.95-4-13.23-3.85-19.18-3.07a42.85,42.85,0,0,0-21.06,9c-1.52,1.19.62,3.3,2.12,2.12Z"/><path d="M258.48,537.6c-18.55,20.37-17.38,52.25-13.23,77.64,5,30.52,16.3,59.59,21.41,90.09,2.74,16.35,4,33.73,1.73,50.22-2.35,16.78-11.45,29.2-22.81,41.23-6.11,6.47-11.64,12.43-21.08,13.06a92.23,92.23,0,0,1-22.85-1.7c-16.11-3.09-26.77-14.05-39.34-23.59a172.28,172.28,0,0,0-22-14.44c-5.74-3.1-12.18-5.57-18.77-4.06-14.75,3.38-18.87,19.92-18.5,33,.05,1.93,3.06,1.93,3,0-.23-8,.63-16.44,5.7-23,5.49-7.07,13.64-9,21.93-5.83,14.86,5.73,27.61,17.36,39.85,27.16,10.76,8.61,21.75,13.38,35.51,14.77,6.53.66,13.59,1.45,20.08.1,6.25-1.29,10.77-5.21,15.08-9.68,9.22-9.53,18.64-19.53,23.55-32.07,5.44-13.9,5.21-29.92,4.31-44.58-1.86-30.18-11.67-58.79-18.91-87.93-4.17-16.79-7.44-34-7.24-51.32.19-16.59,3.19-34.3,14.73-47,1.3-1.42-.82-3.55-2.12-2.12Z"/><path d="M114.13,800.77c-5.18-5.54-1-14.68,5.4-17.08,8.68-3.24,17.75,2,24.16,7.57,10.64,9.23,20.27,18,33.33,23.85,23.55,10.52,53.11,12.77,77.09,2.18,12.73-5.62,18.92-17.88,23.27-30.47,4.87-14.11,6.52-29.23,6.09-44.1-1-33.49-12.49-65.33-20.32-97.58-4.42-18.17-7.86-36.75-7.83-55.52a124.57,124.57,0,0,1,3.17-28.56c1.84-7.78,4.63-19,14-20.4,1.9-.28,1.09-3.17-.8-2.89-13.09,1.92-16,20.12-17.7,30.56-2.64,16.32-1.87,32.94.56,49.24,5.3,35.5,18.89,69.15,24.08,104.65,2.52,17.24,2.89,35-.88,52.14a96,96,0,0,1-8.58,24c-4.4,8.39-10.27,14-19.22,17.36-28.36,10.63-62.19,5.13-86.88-11.89C150.72,795.35,139,777.1,121.77,780c-10.08,1.69-17.59,14.53-9.76,22.91,1.32,1.41,3.44-.71,2.12-2.12Z"/><path d="M333.82,512.08c-1.31-3.58-2.65-7.16-3.94-10.75a16.26,16.26,0,0,1-1.38-5,4.66,4.66,0,0,1,6.28-4.72c7.84,2.8,6,17.1,6.17,23.63l1.73,51.44.86,25.72c.27,7.95,2.06,18.89-4.72,24.76-3.16,2.74-7.31,2.79-8.59-1.46a25.87,25.87,0,0,1-.53-6.18c-.17-4.45,0-8.9.3-13.34.5-8.52,1.06-17,1.59-25.55l3.64-58.21c.12-1.93-2.88-1.92-3,0l-4.44,71c-.67,10.73-2.36,22.21-.51,32.9,1.14,6.62,7.27,7.48,12.41,3.92,7.13-4.95,7.29-14.12,7.06-21.93-.34-11.87-.8-23.74-1.2-35.61l-1.2-35.61-.57-16.82c-.15-4.45.06-9.18-1.2-13.5-1.64-5.64-7.87-11.14-13.95-7.58-7.76,4.55.2,17.93,2.29,23.62.66,1.8,3.56,1,2.89-.8Z"/><path d="M337.81,490.73l1-6.85c.52-3.47.51-4.09,4-4.68,2.45-.42,5.37,0,7.87,0,3.75,0,5-.22,5.76,4.34s.05,9.76-.38,14.29c-.36,3.81.35,7.46-3.92,8.84-2.05.67-4.8.52-6.95.71-1.91.17-1.93,3.17,0,3,3-.27,7.76.14,10.48-1.33,2.14-1.15,2.27-2.82,2.64-5.15a102.31,102.31,0,0,0,1.19-13.69c.08-3.39.73-8-.47-11.27a3.9,3.9,0,0,0-3.19-2.69c-2.15-.53-4.93-.06-7.14-.06-2.58,0-5.3-.22-7.87,0-6.3.6-5.24,8.83-6,13.73-.28,1.89,2.61,2.7,2.89.8Z"/><path d="M356.55,510.83c6.38-4.59,6.48,12.07,5.79,15-.6,2.53-1.63,3.19-4.23,3.43-1.4.13-2.81.21-4.22.28-3.1.14-6.19.11-9.29,0-1.93-.08-1.93,2.92,0,3,3.38.14,6.76.16,10.14,0,2.43-.13,5.49,0,7.76-1,3.5-1.58,2.91-6.18,3-9.35.07-4,.54-9.24-2.17-12.56a6.06,6.06,0,0,0-8.26-1.33c-1.55,1.12-.06,3.72,1.51,2.59Z"/><path d="M389.62,566.06a44.72,44.72,0,0,0-18.46,14.76A43.55,43.55,0,0,0,365.66,591c-1.73,4.56-2.23,9.51-4.21,14-1.83,4.15-5.24,7.45-6.56,11.86-1.24,4.13-.75,8.53.29,12.65,2.09,8.26,6,16.82,10,24.32,3.76,7,8.64,13.45,15.33,17.88,8.12,5.37,18.19,8.31,27.48,10.84a169.87,169.87,0,0,0,61.13,5.16c9-.89,17.33-2.68,23.26-10.06,7.82-9.72,13.72-21.54,20.22-32.17,1-1.65-1.58-3.16-2.59-1.51q-7.54,12.34-15.15,24.63c-2.33,3.76-4.63,7.64-8.06,10.51-3.69,3.09-8.31,4.33-13,5-18.15,2.76-37.34,1.58-55.25-2.15-16.83-3.51-36.38-8.39-46.82-23.14-4.54-6.41-7.59-13.8-10.48-21.06a55.05,55.05,0,0,1-3.8-12.32c-.87-5.94,1.1-9.95,4.25-14.76,4.81-7.34,5-16.33,9.23-24a42.07,42.07,0,0,1,20.21-18.09c1.77-.77.24-3.35-1.51-2.59Z"/><path d="M394.73,500.23l28.8,52.34a1.51,1.51,0,0,0,2.05.54,72,72,0,0,0,26.16-34.53c2.72-7.3,5.65-14.63,10.48-20.82,5.78-7.4,14.42-11.89,22-17.29l-2.26-1.3A199.67,199.67,0,0,1,480.26,538c-.21,1.18,1,2.48,2.2,1.69,8-5.35,13.91-12.79,19.53-20.51a159.82,159.82,0,0,1,10.51-13.54c2.83-3.12,14.89-15.28,17.74-6.23,1.45,4.61-1.81,11.72-3.1,16.08q-2.72,9.23-6.15,18.23a259.89,259.89,0,0,1-17.92,37.56c-.84,1.45,1.17,3.09,2.36,1.82a190.37,190.37,0,0,1,25.89-23.33q6.56-4.88,13.53-9.17c2-1.25,4.14-2.33,6.11-3.66s4-3.31,6.28-3.89a4.9,4.9,0,0,1,5.44,3c.27.74-.13,2.77-.22,3.63-.34,3.29-1.67,5.38-3.41,8.19q-4.86,7.88-9.82,15.7-10.35,16.33-21,32.46a1.52,1.52,0,0,0,1.69,2.2c2.13-.58,9.24-3.32,6.88-6.93-2.52-3.85-7.48,3.11-8.58,4.72a1.51,1.51,0,0,0,1.69,2.2c8-2.3,16.06-4.09,24.22-5.59,2.4-.44,16.11-4.21,11.4,3.73-2.15,3.63-7.82,6.46-11.15,9-12.73,9.69-24.4,21.16-38,29.54-6.37,3.91-14.89,4.06-22.15,5.07a148.14,148.14,0,0,1-25.78,1.77c-8.39-.3-19.63-1.15-26.11-7.13-4.82-4.44-7.39-10.61-12.1-15.19-5.12-5-11.36-8.57-17.52-12.08-7.56-4.3-20.44-10.49-15.83-21.39.74-1.76-1.84-3.29-2.59-1.51-7,16.58,15.66,24.1,26.06,31a48.23,48.23,0,0,1,10.28,8.79c2.94,3.46,4.94,7.55,8,10.93,5.8,6.37,14.35,8,22.59,9,10.22,1.23,20.52.43,30.69-.9,8.5-1.11,18.49-1.21,26-5.8,8.43-5.18,15.71-11.61,23.34-17.87q5.63-4.62,11.37-9.1c4.34-3.38,9.39-6.34,13.44-10,4.25-3.86,5.67-12.18-2.06-12.56-2.51-.12-5.39.89-7.86,1.33-3,.54-6.06,1.1-9.07,1.71q-9,1.83-17.89,4.37l1.69,2.2c.14-.2,3.93-4.42,3.16-4.73a40,40,0,0,1-4.85,2.53l1.69,2.2c8.86-13.47,17.65-27,26.2-40.67,2.87-4.58,7.85-10,8.41-15.53.39-3.86,1.18-9.16-3.18-11s-8.24.83-11.71,3.25c-5.12,3.57-10.68,6.51-15.82,10.08A193.64,193.64,0,0,0,503.31,571l2.36,1.82a264.21,264.21,0,0,0,19.81-42.58,237.79,237.79,0,0,0,7-22.77c.93-3.71,2.1-8.43-.62-11.71-7.48-9-20.53,6.39-24.76,11.65-8.31,10.31-14.88,22.21-26.14,29.71l2.2,1.69a202.35,202.35,0,0,0,1.77-59.61c-.12-1-1.23-2-2.26-1.3-6.56,4.7-14.12,8.68-19.76,14.51-4.93,5.09-8.34,11.33-11.08,17.81-3,7.08-5.11,14.37-9.25,20.92a69.05,69.05,0,0,1-18.5,19.4l2.05.54-28.8-52.34c-.93-1.69-3.52-.18-2.59,1.51Z"/><path d="M395.78,586.71c2.44-14.07-2.1-27.6-4.46-41.34q-2.08-12.15-3.39-24.41-.61-5.75-1-11.51c-.12-1.66-.26-3.32-.29-5,0-2.31,1.09-11.09,6.57-6.59,1.48,1.22,3.61-.89,2.12-2.12-4.1-3.37-9.22-1.53-11.05,3.41-1.29,3.46-.54,7.67-.28,11.24q.56,7.69,1.49,15.34c1.14,9.53,2.54,19,4.51,28.44,2.2,10.47,4.77,21,2.91,31.73-.33,1.89,2.56,2.7,2.89.8Z"/><path d="M80.28,453.35c2.39-5.6,2.81-11.36,3.45-17.35a204.84,204.84,0,0,1,3.77-22.13c1.58-7.14,3.43-14.23,5.33-21.29,1.6-6,3.27-18.38,11.6-18.31,7.83.06,7,12.46,7.2,17.63q.46,10.86.67,21.72.43,22.72-.26,45.43c-.06,1.93,2.94,1.93,3,0q.81-27.65,0-55.31c-.21-7.22.06-14.83-1.11-22-.73-4.45-2.82-9.41-7.77-10.35-13.47-2.57-16,19.35-18.2,27.74-2.23,8.61-4.29,17.28-5.76,26.06s-1.06,18.45-4.53,26.61c-.75,1.76,1.84,3.29,2.59,1.51Z"/><path d="M54.52,466.74c11.48-2.12,23-4.52,34.5-6.33,12-1.88,26.3-.92,31.56,12,2,4.85,2.82,10.15,3.95,15.24,1.21,5.43,2.59,10.87,3.46,16.36,1.78,11.16.61,25.78-11.73,30.39-1.79.67-1,3.57.8,2.89,9.61-3.59,14.3-13.23,14.71-23.06.3-7.21-1.46-14.37-3-21.36s-2.57-14.11-5-20.7c-4-10.59-13.69-15.47-24.61-15.62-7.19-.1-14.34,1.55-21.38,2.85l-24,4.44c-1.9.35-1.09,3.24.8,2.89Z"/><path d="M93.61,494.25c5.74,8.82,12.16,17.51,16.94,26.91,2.6,5.12,5.72,11.78,2.18,17.1-2.28,3.43-5.73,5.92-8,9.41-1.05,1.62,1.54,3.13,2.59,1.51,2.69-4.14,7.31-7.05,9.27-11.67,1.77-4.19.43-8.62-1.13-12.67C111,513.32,102.89,503,96.2,492.74c-1-1.61-3.65-.11-2.59,1.51Z"/><path d="M89.55,518.23q3.21,8.83,6.42,17.66c2.3,6.37,4.36,12.65,3.36,19.5a46.38,46.38,0,0,1-2.38,9c-1.46,4.09-2.46,8-7.33,8.76-6.19,1-14-.75-20.07-2q-4.39-.9-8.68-2.19c-2.52-.76-7.22-1.55-9.19-3.29-3.15-2.78-2.33-7.32-2.29-11,0-3,0-6.05.12-9.06.1-2,.25-8.16,2.73-9.12s2.93,5.19,3.43,6.84a24,24,0,0,0,6.69,11.29c1.43,1.29,3.56-.82,2.12-2.12-3.64-3.29-5.32-7.49-6.52-12.16-.54-2.1-.52-5.51-2.35-7-3.78-3.13-7.54,3.39-8.35,6.33a37,37,0,0,0-.8,9.27c-.06,4.58-.79,9.74,0,14.27,1.06,6,8.71,7.22,13.6,8.69A101.78,101.78,0,0,0,85.15,576c2.95.12,7.06.81,9.67-1,2.33-1.61,3.17-5,4.12-7.45,2.83-7.38,4.65-14.73,3-22.61-1.95-9.39-6.24-18.55-9.51-27.54-.65-1.8-3.56-1-2.89.8Z"/><path d="M52.15,465.41c-7.18,4.07-14.49,8.27-20.32,14.21S22.93,492.84,21.33,501c-3.71,18.84-6.74,39.31-2.85,58.33a63.92,63.92,0,0,0,9.3,22.85,49.63,49.63,0,0,0,6.7,8.06c3.16,3,7.26,5.19,10.14,8.47,8.42,9.6-3.69,20.95-9.27,28.23a110.36,110.36,0,0,0-13.29,22.45,114.26,114.26,0,0,0-9.19,57.81c.2,1.9,3.2,1.92,3,0A111.81,111.81,0,0,1,22.94,655a108.71,108.71,0,0,1,13-23.83c4.5-6.25,10.89-11.88,13.4-19.35,2.31-6.88.42-13.13-5.16-17.66-6.69-5.45-12.43-10.48-16.59-18.23-9.68-18-8.59-39.19-5.79-58.82,1.49-10.43,2.31-22.25,8.59-31.1,5.77-8.12,14.84-13.21,23.33-18a1.5,1.5,0,0,0-1.51-2.59Z"/><path d="M14.11,709.47c30.33,7,62.46,11.94,93.67,11,13.65-.41,25.49-4.26,35.87-13.26a101.49,101.49,0,0,0,14.16-14.46c3.64-4.76,3.61-9.92,3-15.67a106.43,106.43,0,0,0-11-37A104.94,104.94,0,0,0,139,623c-4.81-6.16-10.22-11.49-11.6-19.52-1.27-7.4-.13-15.32.5-22.73a127.43,127.43,0,0,1,3.58-22.7C135.26,544,144.3,533.53,152,521.51c5.26-8.26,13.15-23,4.75-31.92-3.56-3.78-9-4.11-13.62-2.12-6.22,2.7-9.52,9-12.42,14.7-.87,1.72,1.72,3.24,2.59,1.51,2.93-5.81,6.46-13,13.56-14.28,9-1.67,11.25,7.68,9.94,14.47-2.22,11.52-11.06,21.22-17.43,30.68a79.91,79.91,0,0,0-12.91,32.85c-1.77,11.15-3.6,23.77-2.21,35,1.46,11.81,10.48,19,16.76,28.44a103.69,103.69,0,0,1,14.85,34.39c1.44,6.27,3.51,14.29,2.09,20.67-1.31,5.89-7.92,11.13-12.1,15.2-10.63,10.37-22.22,15.74-37.14,16.32-31.2,1.22-63.47-3.87-93.77-10.88-1.88-.43-2.68,2.46-.8,2.89Z"/><path d="M76.27,509.36a125.09,125.09,0,0,0,14.89,11c1.64,1,3.15-1.56,1.51-2.59a119.83,119.83,0,0,1-14.28-10.53c-1.46-1.25-3.59.86-2.12,2.12Z"/><path class="cls-8" d="M178,316.13a672.64,672.64,0,0,0,104.33,3.33,3,3,0,0,1,1.45.17c1,.48,1.17,1.84,1.19,3,.12,11.35,0,23.48-6.35,32.88-4.82,7.12-12.74,11.7-21,14.08s-17,2.78-25.55,3.06c-4.37.14-8.75.25-13.12,0a35.69,35.69,0,0,1-10.55-2c-6.14-2.34-11-7.2-14.61-12.72s-5.91-11.71-8.23-17.86a58.41,58.41,0,0,1-3.22-10.44c-.76-4.3-.72-9.16-3.74-12.31"/><path class="cls-8" d="M178,317.63q28.42,3.09,57,3.83,14.29.35,28.58.09,6.9-.12,13.79-.39c2.35-.09,4.84-1,6.06,1.43.72,1.44,0,4.85,0,6.54-.15,8.53-1,17.54-5.71,24.9s-12.45,11.71-20.54,14.07c-9,2.63-18.62,2.86-28,3.08-9.64.23-19.75.27-27.5-6.31S190.43,348.73,187,339.63a66.88,66.88,0,0,1-3.75-14.1c-.52-3.53-1.34-6.52-3.59-9.31-1.21-1.5-3.32.63-2.12,2.12,3.23,4,2.73,9.58,3.95,14.31a112.68,112.68,0,0,0,5.22,14.46c3.24,7.88,7.38,15.66,14.25,21,7.12,5.49,15.84,6.21,24.54,6.18,10.2,0,20.8-.24,30.73-2.77,16.44-4.19,27.44-15.53,29.6-32.52a103.24,103.24,0,0,0,.66-13.11c0-2.34.58-6.13-2-7.53-2.83-1.57-8.92-.09-12.05,0q-8.87.28-17.74.32a681.92,681.92,0,0,1-76.74-4c-1.92-.21-1.9,2.79,0,3Z"/><path d="M174,317.27q28.81,3.11,57.77,4.31c17.53.71,36,2.3,53.18-2.33l-1.9-1.45c1.63,13.51-.39,28.45-9.85,38.89-9.78,10.8-25.38,14.12-39.2,16.21-15.66,2.37-31.68.72-41.52-13.14-8.93-12.58-10.32-28.54-13.61-43.17-.42-1.88-3.32-1.09-2.89.8,3.59,16,5.15,33.52,16,46.62,10.37,12.51,26,14.15,41.16,12s32.22-5.79,42.69-17.78c9.6-11,11.93-26.39,10.23-40.46a1.53,1.53,0,0,0-1.9-1.45c-17.42,4.71-36.51,2.9-54.34,2.14q-28-1.19-55.81-4.23c-1.92-.21-1.9,2.79,0,3Z"/></svg>